<?xml version="1.0" encoding="utf-8"?>
<!-- Generator: Adobe Illustrator 22.1.0, SVG Export Plug-In . SVG Version: 6.00 Build 0)  -->
<svg version="1.1" id="Layer_1" xmlns="http://www.w3.org/2000/svg" xmlns:xlink="http://www.w3.org/1999/xlink" x="0px" y="0px"
	 viewBox="0 0 392 712" style="enable-background:new 0 0 392 712;" xml:space="preserve">
<style type="text/css">
	.st0{clip-path:url(#SVGID_2_);}
	.st1{clip-path:url(#SVGID_4_);}
	.st2{clip-path:url(#SVGID_6_);fill:#F2A73A;}
</style>
<g>
	<g>
		<defs>
			<rect id="SVGID_1_" x="4" y="10" width="381.1" height="693"/>
		</defs>
		<clipPath id="SVGID_2_">
			<use xlink:href="#SVGID_1_"  style="overflow:visible;"/>
		</clipPath>
		<g class="st0">
			<g>
				<defs>
					<rect id="SVGID_3_" x="4" y="10" width="381.1" height="693"/>
				</defs>
				<clipPath id="SVGID_4_">
					<use xlink:href="#SVGID_3_"  style="overflow:visible;"/>
				</clipPath>
				<g class="st1">
					<g>
						<g>
							<defs>
								<rect id="SVGID_5_" x="-7.5" y="8.7" width="404.1" height="703.3"/>
							</defs>
							<clipPath id="SVGID_6_">
								<use xlink:href="#SVGID_5_"  style="overflow:visible;"/>
							</clipPath>
							<path class="st2" d="M385,525.5c-0.2-2.7-2.6-4.7-5.3-4.5s-4.7,2.6-4.5,5.3s2.6,4.7,5.3,4.5
								C383.2,530.6,385.3,528.2,385,525.5 M385,484.2c-0.2-2.7-2.6-4.7-5.3-4.5c-2.7,0.2-4.7,2.6-4.5,5.3c0.2,2.7,2.6,4.7,5.3,4.5
								C383.2,489.2,385.3,486.9,385,484.2 M385,442.9c-0.2-2.7-2.6-4.7-5.3-4.5s-4.7,2.6-4.5,5.3c0.2,2.7,2.6,4.7,5.3,4.5
								C383.2,447.9,385.3,445.6,385,442.9 M13.8,530.3c-0.2-2.7-2.6-4.7-5.3-4.5c-2.7,0.2-4.7,2.6-4.5,5.3s2.6,4.7,5.3,4.5
								C12,535.3,14,533,13.8,530.3 M13.8,489c-0.2-2.7-2.6-4.7-5.3-4.5c-2.7,0.2-4.7,2.6-4.5,5.3c0.2,2.7,2.6,4.7,5.3,4.5
								C12,494,14,491.7,13.8,489 M234.4,13.7c-0.2-2.2-2.1-3.9-4.3-3.7c-2.2,0.2-3.9,2.1-3.7,4.3c0.2,2.2,2.1,3.9,4.3,3.7
								C233,17.8,234.6,15.9,234.4,13.7 M200.5,13.7c-0.2-2.2-2.1-3.9-4.3-3.7c-2.2,0.2-3.9,2.1-3.7,4.3s2.1,3.9,4.3,3.7
								S200.7,15.9,200.5,13.7 M165.5,13.7c-0.2-2.2-2.1-3.9-4.3-3.7c-2.2,0.2-3.9,2.1-3.7,4.3s2.1,3.9,4.3,3.7
								C164.1,17.8,165.7,15.9,165.5,13.7 M165.7,37.9c-0.3-3.3-3.1-5.7-6.4-5.4c-3.3,0.3-5.7,3.1-5.4,6.4c0.3,3.3,3.1,5.7,6.4,5.4
								C163.5,44.1,166,41.2,165.7,37.9 M201.7,37.9c-0.3-3.3-3.1-5.7-6.4-5.4c-3.3,0.3-5.7,3.1-5.4,6.4c0.3,3.3,3.1,5.7,6.4,5.4
								C199.5,44.1,201.9,41.2,201.7,37.9 M236.5,37.9c-0.3-3.3-3.1-5.7-6.4-5.4s-5.7,3.1-5.4,6.4c0.3,3.3,3.1,5.7,6.4,5.4
								C234.3,44.1,236.8,41.2,236.5,37.9 M13.8,447.6c-0.2-2.7-2.6-4.7-5.3-4.5c-2.7,0.2-4.7,2.6-4.5,5.3c0.2,2.7,2.6,4.7,5.3,4.5
								C12,452.7,14,450.3,13.8,447.6 M230.1,61.4c-3.7-0.1-6,2-6.4,5.7c-0.4,3.2,2.8,6.4,6.2,6.5c3.5,0.1,6.5-2.6,6.5-7.3
								C236.4,63.3,233.9,61.5,230.1,61.4 M151.6,67.6c0.1,3.2,3.4,6.3,6.7,6c3.6-0.3,5.8-2.6,6.3-6c0.5-3.1-3.1-6.2-6.5-6.2
								C154.4,61.3,151.5,64.2,151.6,67.6 M200.9,67.2c-0.4-3.8-2.9-6-6.8-6s-6.3,2-6.6,6c-0.3,3.7,2.7,6.5,6.6,6.5
								C197.8,73.7,201.2,70.7,200.9,67.2 M230.3,108.9c4.2-0.1,7.3-3.2,7.3-7.2c-0.1-3.7-3.3-6.7-7.3-6.8c-4.2-0.1-7.4,3-7.5,7
								C222.7,106,226,109,230.3,108.9 M165.3,102.5c0.4-4-2.7-7.3-6.9-7.5c-3.9-0.2-7.4,2.6-7.7,6.2c-0.4,4,2.5,7.4,6.7,7.7
								S164.9,106.5,165.3,102.5 M194.7,94.5c-4.6-0.2-8.5,2.9-8.7,7.1c-0.2,3.8,3.5,7.7,7.4,8c4.3,0.3,8.4-3.2,8.6-7.3
								C202.1,98.1,199,94.7,194.7,94.5 M46.4,523.2c4.9-0.1,8.4-3.7,8.5-8.6c0.1-5.5-3.6-9.2-8.9-9.1c-5.2,0.1-8.4,3.6-8.4,9.1
								C37.6,519.9,41.1,523.3,46.4,523.2 M55,549.4c0-5.1-3.8-9.1-8.6-9.2c-4.9-0.1-8.7,3.8-8.7,9c-0.1,5.3,3.4,8.9,8.5,9
								C51.2,558.2,54.9,554.5,55,549.4 M230,145c4.8,0.1,9-3.9,9.1-8.7c0.1-4.9-3.8-8.8-8.9-8.8c-5.2,0-9.1,3.7-9.1,8.6
								C221.1,141,225,144.9,230,145 M346.3,565.9c4.9,0.1,8.9-3.9,8.9-8.9s-3.9-9.2-8.6-9.3c-4.9-0.1-8.7,3.8-8.7,9
								C337.8,562.1,341.3,565.9,346.3,565.9 M346.3,532c4.9,0.1,8.9-3.9,8.9-8.9s-3.9-9.2-8.6-9.3c-4.9-0.1-8.7,3.8-8.7,9
								C337.8,528.1,341.3,532,346.3,532 M346.3,489.7c4.9,0.1,8.9-3.9,8.9-8.9s-3.9-9.2-8.6-9.3c-4.9-0.1-8.7,3.8-8.7,9
								C337.8,485.8,341.3,489.6,346.3,489.7 M46.1,489.4c5.1,0.1,9.1-4.2,8.9-9.5c-0.2-5.1-4.2-8.9-9.1-8.7c-5,0.2-8.3,4-8.2,9.4
								C37.7,485.6,41.4,489.4,46.1,489.4 M193,145.9c5-0.2,8.8-4.1,8.7-9c-0.1-5-4-8.6-9.2-8.5c-4.9,0.1-9.2,4.2-9.1,8.8
								C183.4,141.9,187.9,146,193,145.9 M158.4,145.1c5-0.2,8.8-4.1,8.7-9c-0.1-5-4-8.6-9.2-8.5c-4.9,0.1-9.2,4.2-9.1,8.8
								C148.8,141.1,153.3,145.2,158.4,145.1 M240.3,170.6c-0.1-5.3-4.8-9.6-10.3-9.5c-5.7,0.1-10.1,4.4-10,9.8
								c0.1,5.4,4.6,9.6,10.2,9.5C235.8,180.4,240.4,175.8,240.3,170.6 M203.2,170.6c0-5.2-4.7-9.7-10.2-9.8
								c-5.5-0.1-10.2,4.3-10.4,9.6c-0.1,5.8,4.1,10.1,10.1,10.2C198.7,180.6,203.2,176.3,203.2,170.6 M168.3,170.6
								c0-5.2-4.7-9.7-10.2-9.8s-10.2,4.3-10.4,9.6c-0.1,5.8,4.1,10.1,10.1,10.2C163.8,180.6,168.3,176.3,168.3,170.6 M169.2,206
								c0.4-5.9-4.5-11.2-10.8-11.5c-5.9-0.3-11.3,4.4-11.7,10.2c-0.4,5.7,4.6,10.9,10.6,11.2C163.6,216.1,168.8,211.8,169.2,206
								 M182.5,204.9c-0.3,5.9,4.6,10.8,11.1,11.1c6.2,0.3,11.4-4,11.7-9.8c0.3-6.8-4-11.6-10.6-11.9
								C188.2,194,182.8,198.7,182.5,204.9 M242.1,205.3c0-5.9-5.4-11.3-11.7-11.6c-6.1-0.3-12,5-12.2,11c-0.3,6.5,5,11.9,11.6,12
								C236.5,216.7,242.1,211.5,242.1,205.3 M170.1,239.3c0-6.3-5.5-11.5-12.2-11.5s-12,5.2-12,11.6c0,6.6,5.1,11.6,11.9,11.6
								C165,251.1,170.2,246.1,170.1,239.3 M85.8,596.3c6.5-0.1,11.7-5.5,11.8-12.4c0.1-6.8-5.1-12.4-11.6-12.6
								c-6.7-0.1-12,5.4-12,12.7C73.9,590.8,79.3,596.3,85.8,596.3 M295.5,515.5c0,7,5,12.4,11.7,12.5c6.8,0.1,12.1-5.1,12.2-12
								c0.1-7.3-4.9-12.6-12-12.6C300.6,503.3,295.5,508.5,295.5,515.5 M295.5,549.1c0,7,5,12.4,11.7,12.5c6.8,0.1,12.1-5.1,12.2-12
								c0.1-7.3-4.9-12.6-12-12.6C300.6,536.9,295.5,542.1,295.5,549.1 M97.6,514.9c0.1-7-4.9-12.4-11.6-12.5
								c-7.1-0.1-12,5-12.1,12.5c0,7.1,4.8,12.1,11.8,12.1S97.5,522.1,97.6,514.9 M318.9,584c-0.2-7.3-5.3-12.3-12.5-12.1
								c-6.4,0.2-11.5,5.5-11.6,12.1c0,6.9,5.6,12.6,12.3,12.5C313.6,596.4,319.1,590.6,318.9,584 M73.2,549.3
								c0.1,6.5,5.5,11.9,11.8,12c6.7,0.1,12.3-5.6,12.2-12.5s-5.3-12.1-12-12.1C78.3,536.6,73,542.2,73.2,549.3 M194.2,251.5
								c6.7,0,12.5-5.4,12.6-11.8c0.1-6.6-5.8-12.1-12.8-12.1c-7.1,0-12.2,5-12.3,11.8C180.8,246.8,188.4,251.4,194.2,251.5
								 M230.1,227.4c-7.2-0.1-13.1,5.4-13.1,12.3s5.8,12.3,13.2,12.2c7.2-0.1,12.4-5.2,12.3-12.2
								C242.5,232.7,237.2,227.5,230.1,227.4 M194.1,261.5c-7.3,0-13.1,5.2-13.3,12.1s5.8,12.9,13.1,13.1s13.3-5.4,13.4-12.6
								C207.3,266.9,201.7,261.5,194.1,261.5 M144.6,274.4c0.3,6.6,6.5,12.4,13.4,12.4c7.1,0,13.6-6.3,13.5-13
								c-0.1-6.9-6.5-12.7-13.8-12.5C150.5,261.5,144.4,267.6,144.6,274.4 M229.7,287c7.3,0.1,13.8-6.3,13.7-13.2
								c-0.1-7-6.4-12.8-13.6-12.8c-7.3,0.1-13.4,6-13.4,12.9C216.4,280.9,222.6,287,229.7,287 M216.4,308.1
								c-0.3,7.2,5.6,13.2,13.3,13.4c7.2,0.2,13.5-5.5,13.8-12.5c0.3-7.1-5.9-13.3-13.3-13.4C222.8,295.4,216.7,301,216.4,308.1
								 M207.7,308.6c0-7.2-6-13.2-13.4-13.3c-7.4-0.1-14.2,6.4-14.1,13.4c0.2,7.1,6.4,12.9,13.9,12.9
								C201.8,321.6,207.6,316,207.7,308.6 M215.8,343.2c0,7.3,6.3,13.1,14.2,13.2c7.5,0.1,13.9-6.1,14-13.5c0-7-6.3-13.1-13.7-13.2
								C222.2,329.7,215.8,335.6,215.8,343.2 M157.9,322c7.8,0,13.9-5.9,14-13.4c0-7.7-5.8-13.4-13.7-13.5
								c-8.1-0.1-13.8,5.5-13.8,13.3C144.4,316.2,150.2,322,157.9,322 M179.9,343.4c0.2,7.4,6.4,13.1,14.4,13.2
								c7.5,0,13.8-6.3,13.8-13.8c-0.1-7.3-6.3-13.2-13.8-13.1C186.1,329.8,179.7,335.9,179.9,343.4 M143.5,342.9
								c-0.1,7.7,6.6,14.2,14.6,14.1c8.1-0.1,14.6-6.4,14.5-14.2c-0.1-7.5-6.6-13.5-14.6-13.5C150.1,329.2,143.6,335.4,143.5,342.9
								 M194,391.2c8.3,0,14.7-6.1,14.8-13.9c0.1-7.3-6.8-14-14.4-13.8c-8.5,0.2-14.8,6.1-14.8,13.7
								C179.8,385.6,185.5,391.2,194,391.2 M284.1,549.8c0.1-8.2-6-14.8-13.8-14.8c-7.8-0.1-14,6.4-14.1,14.5
								c0,8.3,5.9,14.7,13.7,14.8C277.9,564.3,284.1,558,284.1,549.8 M270.1,598.6c8,0.1,14-6.1,14.1-14.4c0-8.3-6-14.7-13.8-14.7
								c-8,0-14,6.2-14,14.5C256.3,592.4,262.1,598.6,270.1,598.6 M244.4,377.5c0.1-7.8-5.9-13.8-13.9-14
								c-8.6-0.2-15.4,5.9-15.4,13.7c0,7.8,6.3,13.9,14.6,14C238,391.4,244.3,385.5,244.4,377.5 M136.5,584
								c0.1-7.9-6.3-14.7-13.9-14.9c-7.6-0.2-14.1,6.5-14.2,14.5c-0.1,8.1,6.1,14.7,13.9,14.8C129.9,598.5,136.4,592,136.5,584
								 M256.3,619.5c0,8.3,5.9,14.7,13.7,14.9c7.6,0.1,14-6.4,14.1-14.6c0.1-8.4-5.6-14.5-13.8-14.5
								C262.1,605.2,256.3,611.1,256.3,619.5 M108.4,549.2c-0.1,8,6.3,14.8,13.9,14.9c7.6,0.1,14.2-6.6,14.3-14.6s-6.1-14.6-14-14.6
								C114.6,534.8,108.5,541,108.4,549.2 M122.2,604.7c-7.8,0.1-14,6.7-13.8,14.8c0.1,8.1,6.4,14.5,14.2,14.4
								c7.7-0.1,14-6.8,13.9-14.8C136.5,611.2,130,604.6,122.2,604.7 M143.3,377.6c0.2,7.8,6.7,13.9,14.8,13.9
								c8.3,0,14.7-6.3,14.8-14.4c0.1-7.7-6.5-13.8-14.8-13.7C149.3,363.4,143.1,369.4,143.3,377.6 M229.8,460.5
								c8.5,0,14.7-6,14.7-14.3c0-8.2-6.3-14.3-14.7-14.3c-8.4,0-14.9,6.3-14.9,14.3C215,454.2,221.5,460.5,229.8,460.5
								 M209.1,446.1c-0.1-7.9-6.9-14.2-15.2-14.1c-8.4,0.1-14.8,6.4-14.6,14.4c0.1,8.2,6.5,14.2,14.9,14.1
								C202.5,460.5,209.2,453.9,209.1,446.1 M229.8,426.2c8.3,0.1,14.8-6.3,14.8-14.4s-6.1-14.1-14.4-14.2
								c-8.5-0.1-15.1,6-15.2,14.1C215,419.6,221.6,426.1,229.8,426.2 M179.3,411.7c0,8.1,6.5,14.5,14.6,14.5
								c8.2,0,15.1-6.4,15.2-14.2c0.1-7.9-6.5-14.3-14.8-14.4C185.7,397.5,179.3,403.5,179.3,411.7 M143,412.1
								c0.2,7.9,7,14.2,15.3,14.1s14.9-6.7,14.8-14.6c-0.1-8-6.8-14.1-15.3-14C149.4,397.7,142.9,404.1,143,412.1 M173.1,446.2
								c0-8-6.7-14.3-15.1-14.3c-8.3,0-15,6.4-15,14.4s6.6,14.2,15.1,14.2C166.5,460.5,173.1,454.3,173.1,446.2 M229.7,495.1
								c8.6,0.1,15.2-6.2,15.2-14.5c0-8.2-6.3-14.3-14.8-14.4c-8.8,0-15.2,6-15.2,14.4C214.9,488.6,221.4,494.9,229.7,495.1
								 M209.1,480.2c-0.2-7.9-6.9-14.1-15.3-14c-8.6,0-15.4,6.5-15.2,14.7c0.2,7.8,7.1,14.2,15.3,14.2
								C202.5,495,209.3,488.3,209.1,480.2 M173.4,480.5c0-7.8-6.8-14.3-15.1-14.3c-8.6-0.1-15.4,6.2-15.5,14.3
								c-0.1,7.7,6.9,14.4,15,14.5C166.3,495.1,173.4,488.5,173.4,480.5 M245.6,655c0.1-8.3-6-14.5-14.5-14.7
								c-9.1-0.2-16,5.9-16.1,14.2c-0.1,8.4,6.3,14.6,15.1,14.7C239,669.4,245.5,663.4,245.6,655 M229.7,598.7
								c8.8,0.1,15.2-6,15.3-14.3c0.1-8.5-6.3-14.8-14.9-14.7c-9.1,0.1-15.2,5.9-15.2,14.3C214.8,592.5,221,598.6,229.7,598.7
								 M172.8,618.4c0.1-8.3-6.8-14.8-15.7-14.8c-8.3,0.1-14.6,6.4-14.6,14.6c0,8.5,6.3,14.6,15,14.6S172.7,626.8,172.8,618.4
								 M142.7,514.9c-0.1,8.1,6.7,14.7,15.3,14.7c8.2,0.1,15.2-6.4,15.4-14.2c0.2-8-6.7-14.9-15.1-14.9
								C149.8,500.4,142.8,506.8,142.7,514.9 M229.8,529.7c8.6,0,15.1-6.2,15.2-14.6c0.1-8.3-6.4-14.6-15-14.6
								c-8.9,0-15.1,6-15.1,14.5C214.8,523.4,221.2,529.7,229.8,529.7 M173.4,549.6c0-7.8-7.2-14.7-15.4-14.6
								c-8.3,0.1-15.3,6.8-15.3,14.7c0,8.2,7,14.6,15.8,14.6C166.5,564.1,173.4,557.3,173.4,549.6 M229.7,564.2
								c8.7,0.1,15.2-6.1,15.3-14.4c0.1-8.3-6.5-14.8-15-14.8c-8.7,0-15.2,6.2-15.2,14.5C214.8,557.9,221.1,564.1,229.7,564.2
								 M194.6,673.8c-9,0-15.1,5.7-15.2,14.3c-0.1,8.5,6.2,14.8,14.9,14.8c8.7,0.1,15.1-6,15.1-14.5
								C209.4,679.8,203.4,673.8,194.6,673.8 M194.6,639.5c-9-0.1-15.1,5.7-15.3,14.3s6,14.7,14.8,14.8c8.9,0.1,15.1-5.8,15.2-14.3
								C209.4,645.6,203.4,639.6,194.6,639.5 M157.3,668.9c8.7,0.1,15.4-6.1,15.6-14.3c0.2-8.5-6.5-14.9-15.5-14.9
								c-8.3,0-14.8,6.2-14.8,14.3C142.4,662.7,148.6,668.8,157.3,668.9 M230.5,633.4c8.6,0,15.1-6.3,15.1-14.7
								c0-8.3-6.6-14.5-15.3-14.5c-8.6,0.1-15.3,6.4-15.2,14.6C215.1,627,221.9,633.4,230.5,633.4 M178.6,514.9
								c-0.1,8.2,6.5,14.7,15.1,14.8c8.5,0.1,15.4-6.4,15.5-14.4c0-8.3-6.5-14.7-15-14.7C185.3,500.5,178.7,506.7,178.6,514.9
								 M209.1,619.4c0-8.2-6.6-14.7-15-14.8c-8.8-0.1-15.7,6.4-15.6,14.8c0.1,8.2,6.8,14.5,15.3,14.5
								C202.5,633.8,209.1,627.6,209.1,619.4 M177.6,583.6c0,7.9,6.6,14.5,14.8,14.7c8.6,0.2,16.1-6.5,16.2-14.5
								c0.1-7.8-7.1-14.6-15.5-14.7C184.6,569,177.7,575.5,177.6,583.6 M142.7,583.6c0,7.9,6.6,14.5,14.8,14.7
								c8.6,0.2,16.1-6.5,16.2-14.5c0.1-7.8-7.1-14.6-15.5-14.7C149.7,569,142.8,575.5,142.7,583.6 M193.6,564.2
								c-8.5-0.1-15.1-6.6-15-14.8s6.8-14.5,15.4-14.5c8.6,0,15.3,6.6,15.2,15.1C209,558.1,202.3,564.2,193.6,564.2"/>
						</g>
					</g>
				</g>
			</g>
		</g>
	</g>
</g>
</svg>
